<svg version="1.1" id="Layer_1" xmlns="http://www.w3.org/2000/svg" xmlns:xlink="http://www.w3.org/1999/xlink" x="0px" y="0px"
	 width="122.88px" height="111.346px" viewBox="0 0 122.88 111.346" enable-background="new 0 0 122.88 111.346"
	 xml:space="preserve">
<g>
	<path d="M114.204,65.473c-3.936,0-7.128,3.192-7.128,7.128s3.192,7.128,7.128,7.128s7.128-3.192,7.128-7.128
		S118.14,65.473,114.204,65.473z M114.204,76.729c-2.278,0-4.128-1.851-4.128-4.128s1.851-4.128,4.128-4.128
		s4.128,1.851,4.128,4.128S116.482,76.729,114.204,76.729z M21.926,65.473c-3.936,0-7.128,3.192-7.128,7.128
		s3.192,7.128,7.128,7.128s7.128-3.192,7.128-7.128S25.862,65.473,21.926,65.473z M21.926,76.729c-2.278,0-4.128-1.851-4.128-4.128
		s1.851-4.128,4.128-4.128s4.128,1.851,4.128,4.128S24.204,76.729,21.926,76.729z M122.88,58.346L99.243,34.606
		c-0.048-0.048-0.125-0.082-0.183-0.116c-2.363-1.432-5.208-1.463-7.599-0.085L70.114,46.648H45.239l-4.33-12.99
		c-0.532-1.596-1.932-2.743-3.633-2.743H1.5c-0.828,0-1.5,0.672-1.5,1.5s0.672,1.5,1.5,1.5h35.776l4.33,12.99
		c0.532,1.596,1.932,2.743,3.633,2.743h24.875l21.347-12.243c1.582-0.906,3.518-0.885,5.08,0.054l23.637,23.742V58.346z
		 M91.461,65.473H32.667c-2.213,0-4.049,1.62-4.43,3.784l-4.33,24.103c-0.321,1.786,0.886,3.49,2.672,3.811
		c0.211,0.038,0.422,0.057,0.63,0.057c1.545,0,2.959-0.973,3.547-2.46l3.999-16.99h52.992l3.999,16.99
		c0.588,2.491,3.137,3.951,5.628,3.363c2.491-0.588,3.951-3.137,3.363-5.628l-4.33-24.103
		C95.51,67.092,93.674,65.473,91.461,65.473z"/>
</g>
</svg>